<svg width="533" height="434" viewBox="0 0 533 434" fill="none" xmlns="http://www.w3.org/2000/svg">
<path d="M498 237.5V103H278V237.5C289.576 278.247 318.5 302 361 302C361 332.97 363.61 341.077 381.348 344.963C385.072 345.779 388.941 345.92 392.692 345.241C410.232 342.068 414 331.997 414 302C455.5 301 481.11 284.151 498 237.5Z" fill="#C38959"/>
<path d="M328.5 103C317.5 231.5 323.5 294.618 414 302V314H378C379.961 330.321 383.88 337.133 393 345C372 348.5 357 338 361 302C320.5 302 289 279.5 278 237V103H328.5Z" fill="#B17A4A"/>
<path d="M320 186V173C320 166.925 324.925 162 331 162C337.075 162 342 166.925 342 173V186C342 192.075 337.075 197 331 197C324.925 197 320 192.075 320 186Z" fill="#454045"/>
<path d="M433 186V173C433 166.925 437.925 162 444 162C450.075 162 455 166.925 455 173V186C455 192.075 450.075 197 444 197C437.925 197 433 192.075 433 186Z" fill="#454045"/>
<path d="M322.5 202C315.744 202.047 311.825 203.063 307.142 206.473C305.072 207.98 304 210.47 304 213.03C304 215.555 305.032 218.029 307.107 219.467C311.415 222.454 315.786 223.612 322.5 224C328.715 223.498 333.14 222.577 337.772 219.48C339.923 218.043 341 215.513 341 212.927C341 210.425 340.001 207.96 337.933 206.551C333.785 203.724 329.32 202.625 322.5 202Z" fill="#E490B7"/>
<path d="M454 202C447.244 202.047 443.325 203.063 438.642 206.473C436.572 207.98 435.5 210.47 435.5 213.03C435.5 215.555 436.532 218.029 438.607 219.467C442.915 222.454 447.286 223.612 454 224C460.215 223.498 464.64 222.577 469.272 219.48C471.423 218.043 472.5 215.513 472.5 212.927C472.5 210.425 471.501 207.96 469.433 206.551C465.285 203.724 460.82 202.625 454 202Z" fill="#E490B7"/>
<path d="M408.234 214.606C405.341 218.745 402.96 221.406 399.736 223.695C397.386 225.363 394.49 226 391.609 226C388.589 226 385.575 225.275 383.084 223.569C379.656 221.222 377.489 218.947 375.696 215.658C374.531 213.518 372.403 212 369.967 212C366.672 212 364 214.672 364 217.967V218.784C364 220.224 364.453 221.634 365.329 222.777C369.05 227.635 372.295 230.818 376.673 233.754C381.296 236.854 386.905 238 392.472 238C396.786 238 401.15 237.362 404.944 235.307C410.112 232.508 413.642 228.996 417.875 222.71C418.621 221.602 419 220.29 419 218.954V217.853C419 214.62 416.38 212 413.147 212C411.182 212 409.36 212.995 408.234 214.606Z" fill="#985E33"/>
<path d="M498 238V200C499.04 194.397 500.519 190.629 502.94 187.964C509.404 180.849 522.748 181.251 528.511 188.946C529.587 190.383 530.439 192.079 531.116 194.11C533.23 200.449 532.483 207.398 530.482 213.774C524.874 231.647 516.19 236.608 498 238Z" fill="#B17A4A"/>
<path d="M498 37V163.777C498 165.519 496.517 166.911 494.793 166.669C485.771 165.403 481.432 161.531 476.418 151.634C476.208 151.221 476.1 150.759 476.1 150.296V116H310.851L278 141.5V37C278 24.8497 287.85 15 300 15H476C488.15 15 498 24.8497 498 37Z" fill="#544F57"/>
<path d="M353 15C331.914 17.9293 327.5 19 327.5 116H311L278 141V36C278 24.402 287.402 15 299 15H353Z" fill="#454045"/>
<path d="M248.112 433H55.1115C55.1115 334.499 43.0016 313 119 313C119 353 171.5 347.5 172 313H346.5L296.5 358H248.112V433Z" fill="#80B4FB"/>
<path d="M78.3098 433.077H93.3099V383.577C93.3099 379.435 89.952 376.077 85.8098 376.077C81.6677 376.077 78.3098 379.435 78.3098 383.577V433.077Z" fill="#5490F9"/>
<path d="M50.3098 433.077H71.3098C71.3098 351.577 60.3115 330.577 113.81 313.077C41.8115 311.077 50.3102 348.077 50.3098 433.077Z" fill="#5490F9"/>
<path d="M248 345V358H300V345H248Z" fill="#5490F9"/>
<path d="M483.111 433H290.111C290.111 334.499 284.502 313 360.5 313C365.5 348.5 407.5 346.5 413.5 313C483.114 313 483.114 331.295 483.111 431.328L483.111 433Z" fill="#DD636E"/>
<path d="M440.31 433.077H455.31V383.577C455.31 379.435 451.952 376.077 447.81 376.077C443.668 376.077 440.31 379.435 440.31 383.577V433.077Z" fill="#DA4A54"/>
<path d="M318.31 433.077H333.31V383.577C333.31 379.435 329.952 376.077 325.81 376.077C321.668 376.077 318.31 379.435 318.31 383.577V433.077Z" fill="#DA4A54"/>
<path d="M290.31 433.077H311.31C311.31 351.577 300.311 330.577 353.81 313.077C281.812 311.077 290.31 348.077 290.31 433.077Z" fill="#DA4A54"/>
<path d="M92 283.5L80 143L257 70V238C239.185 282.609 215 302 172 302V316C172.36 333.195 168.489 339.707 153.5 345C132.192 339.587 127.03 329.807 130 300L92 283.5Z" fill="#FFCBBE"/>
<path d="M172.04 302C102.54 298.5 83.04 252.5 90.04 157.5L36.04 167V195C29.716 185.336 25.0304 182.036 16.7824 182.555C14.2882 182.712 11.839 183.505 9.76797 184.904C-13.1377 200.375 7.78036 238 36.04 238C48.04 277 71.9988 300.311 119.04 302V320C120.04 336 133.04 349 153.54 345C140.955 336.975 136.34 331.077 136.04 316H172.04V302Z" fill="#EAAC9D"/>
<path d="M278.04 183C310.54 188.877 287.54 244 257.04 238V199.5C263.777 184.128 268.514 181.277 278.04 183Z" fill="#EAAC9D"/>
<path d="M156.54 202H134.54C130.95 202 128.04 204.91 128.04 208.5C128.04 212.09 130.95 215 134.54 215H156.54C160.13 215 163.04 212.09 163.04 208.5C163.04 204.91 160.13 202 156.54 202Z" fill="#EAAC9D"/>
<path d="M73 193V180C73 173.925 77.9249 169 84 169C90.0751 169 95 173.925 95 180V193C95 199.075 90.0751 204 84 204C77.9249 204 73 199.075 73 193Z" fill="#454045"/>
<path d="M186 193V180C186 173.925 190.925 169 197 169C203.075 169 208 173.925 208 180V193C208 199.075 203.075 204 197 204C190.925 204 186 199.075 186 193Z" fill="#454045"/>
<path d="M75.5 209C68.744 209.047 64.8254 210.063 60.1415 213.473C58.0715 214.98 57 217.47 57 220.031C57 222.556 58.032 225.029 60.1069 226.467C64.4151 229.454 68.7865 230.613 75.5 231C81.7145 230.498 86.14 229.577 90.7723 226.481C92.9228 225.043 94 222.514 94 219.927C94 217.425 93.0006 214.96 90.9333 213.551C86.7846 210.724 82.3198 209.625 75.5 209Z" fill="#E490B7"/>
<path d="M207 209C200.244 209.047 196.325 210.063 191.642 213.473C189.572 214.98 188.5 217.47 188.5 220.031C188.5 222.556 189.532 225.029 191.607 226.467C195.915 229.454 200.286 230.613 207 231C213.215 230.498 217.64 229.577 222.272 226.481C224.423 225.043 225.5 222.514 225.5 219.927C225.5 217.425 224.501 214.96 222.433 213.551C218.285 210.724 213.82 209.625 207 209Z" fill="#E490B7"/>
<path d="M163.234 233.606C160.341 237.745 157.96 240.406 154.736 242.695C152.386 244.363 149.49 245 146.609 245C143.589 245 140.575 244.275 138.084 242.569C134.656 240.222 132.489 237.947 130.696 234.658C129.531 232.518 127.403 231 124.967 231C121.672 231 119 233.672 119 236.967V237.784C119 239.224 119.453 240.634 120.329 241.777C124.05 246.635 127.295 249.818 131.673 252.754C136.296 255.854 141.905 257 147.472 257C151.786 257 156.15 256.362 159.944 254.307C165.112 251.508 168.642 247.996 172.875 241.71C173.621 240.602 174 239.29 174 237.954V236.853C174 233.62 171.38 231 168.147 231C166.182 231 164.36 231.995 163.234 233.606Z" fill="#DD636E"/>
<path d="M199.019 109.795C167.132 134.123 142.389 144.656 89.0194 159.295C60.0202 71.2953 110.001 3.00001 222.5 12.5C288.501 21.9999 304.93 65.0746 277 183C267.519 182.121 261.792 187.792 257.019 201.795V165.795C227.92 158.493 215.468 145.674 199.019 109.795Z" fill="#F4DD45"/>
<path d="M90.0244 159.297C64.0205 87.7954 98.0205 15.2954 193.024 13.7969C62.0222 -33.2043 -24.4795 43.7954 21.5244 185.297C28.7072 184.345 31.7851 188.256 36.5244 198.797V168.797L90.0244 159.297Z" fill="#EAB14D"/>
<path d="M445.353 313H421L421.001 335.5C425.001 355 460.001 355.5 458 323C456.209 319.053 454.738 316.801 452.118 314.886C450.184 313.471 447.749 313 445.353 313Z" fill="#FFCBBE"/>
<path d="M445.353 313H421V323C446.172 317.518 453.904 317.622 458 323C456.209 319.053 454.738 316.801 452.118 314.886C450.184 313.471 447.749 313 445.353 313Z" fill="#EAAC9D"/>
</svg>
