<svg width="100" height="100" viewBox="0 0 100 100" fill="none" xmlns="http://www.w3.org/2000/svg">
<g clip-path="url(#clip0)">
<path d="M1.86983 17.8373L17.8905 1.81661C18.8668 0.8403 20.4497 0.8403 21.426 1.81661L46.6992 27.0898C48.4565 28.8471 51.3058 28.8471 53.0632 27.0898L78.5084 1.64456C79.4847 0.668257 81.0676 0.668254 82.0439 1.64456L97.9499 17.5505C98.9262 18.5268 98.9262 20.1098 97.9499 21.0861L72.5047 46.5313C70.7473 48.2886 70.7473 51.1379 72.5046 52.8952L97.7778 78.1684C98.7541 79.1447 98.7541 80.7276 97.7778 81.7039L81.7571 97.7246C80.7808 98.7009 79.1979 98.7009 78.2216 97.7246L52.9485 72.4514C51.1911 70.6941 48.3419 70.6941 46.5845 72.4514L21.1393 97.8966C20.163 98.873 18.5801 98.873 17.6038 97.8966L1.69778 81.9907C0.721471 81.0144 0.721471 79.4315 1.69778 78.4551L27.143 53.0099C28.9004 51.2526 28.9004 48.4033 27.143 46.646L1.86983 21.3728C0.893521 20.3965 0.893519 18.8136 1.86983 17.8373Z" fill="#EED600" stroke="#EED600" class="svg-elem-1"></path>
</g>
<defs>
<clipPath id="clip0">
<rect width="100" height="100" fill="white" class="svg-elem-2"></rect>
</clipPath>
</defs>
</svg>
