<svg width="295" height="435" viewBox="0 0 295 435" fill="none" xmlns="http://www.w3.org/2000/svg">
<path d="M259.397 232.619V92.0024H35.6035V232.619C47.379 275.219 76.8018 300.053 120.035 300.053C120.035 332.401 122.684 340.891 140.681 344.958C144.502 345.822 148.478 345.971 152.328 345.251C170.124 341.922 173.948 331.382 173.948 300.053C216.164 299.007 242.216 281.392 259.397 232.619Z" fill="#C38959"/>
<path d="M86.9742 92.0024C75.7846 226.347 81.888 292.335 173.948 300.053V312.599H137.328C139.322 329.662 143.309 336.783 152.586 345.009C131.224 348.668 115.966 337.69 120.035 300.053C78.8363 300.053 46.7932 276.53 35.6035 232.097V92.0024H86.9742Z" fill="#B17A4A"/>
<path d="M78.3271 179.088V164.875C78.3271 158.695 83.3369 153.686 89.5168 153.686C95.6967 153.686 100.706 158.695 100.706 164.875V179.088C100.706 185.268 95.6967 190.277 89.5168 190.277C83.3369 190.277 78.3271 185.268 78.3271 179.088Z" fill="#454045"/>
<path d="M193.275 179.088V164.875C193.275 158.695 198.285 153.686 204.465 153.686C210.645 153.686 215.655 158.695 215.655 164.875V179.088C215.655 185.268 210.645 190.277 204.465 190.277C198.285 190.277 193.275 185.268 193.275 179.088Z" fill="#454045"/>
<path d="M80.8697 195.505C74.0238 195.554 70.0419 196.608 65.3017 200.14C63.1514 201.742 62.0508 204.356 62.0508 207.038C62.0508 209.681 63.1101 212.277 65.2668 213.806C68.9988 216.451 72.7846 217.714 78.0551 218.276C79.9237 218.476 81.8125 218.45 83.6782 218.224C88.5633 217.632 92.3829 216.528 96.3451 213.822C98.5823 212.294 99.6887 209.637 99.6887 206.927C99.6887 204.309 98.664 201.722 96.5148 200.225C92.3099 197.297 87.7774 196.156 80.8697 195.505Z" fill="#E490B7"/>
<path d="M214.637 195.505C207.791 195.554 203.809 196.608 199.069 200.14C196.919 201.742 195.818 204.356 195.818 207.038C195.818 209.681 196.877 212.277 199.034 213.806C202.766 216.451 206.552 217.714 211.822 218.276C213.691 218.476 215.58 218.45 217.445 218.224C222.331 217.632 226.15 216.528 230.112 213.822C232.35 212.294 233.456 209.637 233.456 206.927C233.456 204.309 232.431 201.722 230.282 200.225C226.077 197.297 221.545 196.156 214.637 195.505Z" fill="#E490B7"/>
<path d="M168.099 208.659C165.139 213.013 162.709 215.805 159.409 218.207C157.041 219.931 154.098 220.597 151.169 220.597C148.1 220.597 145.039 219.84 142.528 218.077C139.003 215.601 136.785 213.204 134.951 209.723C133.79 207.521 131.619 205.96 129.13 205.96C125.791 205.96 123.085 208.666 123.085 212.005V213.091C123.085 214.573 123.541 216.026 124.427 217.214C128.231 222.32 131.546 225.658 136.03 228.74C140.691 231.943 146.388 233.142 152.043 233.142C156.433 233.142 160.874 232.472 164.711 230.34C169.986 227.41 173.583 223.733 177.9 217.14C178.652 215.991 179.033 214.641 179.033 213.268V211.882C179.033 208.611 176.382 205.96 173.111 205.96C171.096 205.96 169.231 206.993 168.099 208.659Z" fill="#985E33"/>
<path d="M259.396 233.142V193.414C260.448 187.595 261.94 183.668 264.374 180.885C270.874 173.454 284.671 173.897 290.461 181.895C291.659 183.549 292.581 185.53 293.296 187.942C295.146 194.179 294.492 200.889 292.646 207.127C286.947 226.373 278.125 231.669 259.396 233.142Z" fill="#B17A4A"/>
<path d="M35.6035 233.142V193.414C34.5522 187.595 33.0605 183.668 30.6265 180.885C24.126 173.454 10.3288 173.897 4.53886 181.895C3.34137 183.549 2.41943 185.53 1.7038 187.942C-0.146107 194.179 0.507729 200.889 2.3544 207.127C8.05289 226.373 16.8746 231.669 35.6035 233.142Z" fill="#B17A4A"/>
<path d="M259.397 22V155.684C259.397 157.428 257.911 158.82 256.185 158.574C246.961 157.256 242.54 153.204 237.422 142.808C237.223 142.402 237.119 141.95 237.119 141.498V105.593H69.0206L35.6035 132.253V22C35.6035 9.84974 45.4533 0 57.6035 0H237.397C249.547 0 259.397 9.84971 259.397 22Z" fill="#544F57"/>
<path d="M111.897 0C90.4467 3.06247 85.957 4.18192 85.957 105.593H69.1725L35.6035 131.73V21C35.6035 9.40202 45.0055 0 56.6035 0H111.897Z" fill="#454045"/>
<path d="M244.252 434.919H47.9245C47.9245 331.939 42.218 309.462 119.527 309.462C124.613 346.576 167.337 344.485 173.441 309.462C244.255 309.462 244.254 328.589 244.252 433.172L244.252 434.919Z" fill="#DD636E"/>
<path d="M200.711 435H215.97V383.037C215.97 378.823 212.554 375.407 208.34 375.407C204.127 375.407 200.711 378.823 200.711 383.037V435Z" fill="#DA4A54"/>
<path d="M76.6075 435H91.8661V383.037C91.8661 378.823 88.4504 375.407 84.2368 375.407C80.0233 375.407 76.6075 378.823 76.6075 383.037V435Z" fill="#DA4A54"/>
<path d="M48.1248 435H69.4868C69.4868 349.793 58.2988 327.838 112.72 309.542C39.4799 307.451 48.1251 346.134 48.1248 435Z" fill="#DA4A54"/>
</svg>
