<svg width="295" height="435" viewBox="0 0 295 435" fill="none" xmlns="http://www.w3.org/2000/svg">
<path d="M249.099 434.923H55.3312C55.3312 335.985 43.1731 314.39 119.474 314.39C119.474 354.568 177.704 314.434 172.685 314.39C255.011 314.39 249.099 325.439 249.099 434.923Z" fill="#80B4FB"/>
<path d="M78.6217 435H93.6814V385.277C93.6814 381.118 90.3101 377.747 86.1515 377.747C81.9929 377.747 78.6217 381.118 78.6217 385.277V435Z" fill="#5490F9"/>
<path d="M50.5103 435H71.5938C71.5938 353.138 60.5517 332.045 114.263 314.467C41.9782 312.459 50.5107 349.623 50.5103 435Z" fill="#5490F9"/>
<path d="M204.812 435H219.872V385.277C219.872 381.118 216.5 377.747 212.342 377.747C208.183 377.747 204.812 381.118 204.812 385.277V435Z" fill="#5490F9"/>
<path d="M92.3661 284.759L80.3184 143.635L258.022 70.311V239.057C240.136 283.864 215.855 303.341 172.684 303.341V317.403C173.046 334.675 169.159 341.216 154.111 346.532C132.718 341.095 127.535 331.272 130.517 301.332L92.3661 284.759Z" fill="#FFCBBE"/>
<path d="M172.724 303.341C102.948 299.825 83.3704 253.621 90.3982 158.199L36.1834 167.741V195.866C29.8308 186.153 25.1249 182.84 16.8358 183.366C14.3408 183.525 11.8908 184.318 9.81858 185.717C-13.1971 201.252 7.80648 239.057 36.1834 239.057C48.2311 278.23 72.2853 301.644 119.514 303.341V321.421C120.518 337.492 133.569 350.55 154.151 346.532C141.515 338.471 136.883 332.547 136.581 317.403H172.724V303.341Z" fill="#EAAC9D"/>
<path d="M279.146 183.812C311.775 189.715 288.684 245.083 258.063 239.057V200.386C264.826 184.946 269.582 182.082 279.146 183.812Z" fill="#EAAC9D"/>
<path d="M157.16 202.897H135.078C131.472 202.897 128.549 205.82 128.549 209.426C128.549 213.031 131.472 215.955 135.078 215.955H157.16C160.766 215.955 163.689 213.031 163.689 209.426C163.689 205.82 160.766 202.897 157.16 202.897Z" fill="#EAAC9D"/>
<path d="M73.29 193.862V180.794C73.29 174.695 78.2345 169.75 84.3338 169.75C90.4331 169.75 95.3776 174.695 95.3776 180.794V193.862C95.3776 199.961 90.4331 204.906 84.3338 204.906C78.2345 204.906 73.29 199.961 73.29 193.862Z" fill="#454045"/>
<path d="M186.74 193.862V180.794C186.74 174.695 191.684 169.75 197.783 169.75C203.883 169.75 208.827 174.695 208.827 180.794V193.862C208.827 199.961 203.883 204.906 197.783 204.906C191.684 204.906 186.74 199.961 186.74 193.862Z" fill="#454045"/>
<path d="M75.8002 209.928C69.0177 209.975 65.0836 210.996 60.3815 214.421C58.3025 215.935 57.2266 218.436 57.2266 221.008C57.2266 223.544 58.2628 226.028 60.3468 227.474C64.6718 230.474 69.0604 231.637 75.8002 232.026C82.0389 231.522 86.4819 230.597 91.1322 227.487C93.2921 226.043 94.3738 223.502 94.3738 220.904C94.3738 218.391 93.3702 215.915 91.2939 214.499C87.129 211.66 82.6466 210.556 75.8002 209.928Z" fill="#E490B7"/>
<path d="M207.823 209.928C201.041 209.975 197.107 210.996 192.405 214.421C190.326 215.935 189.25 218.436 189.25 221.008C189.25 223.544 190.286 226.028 192.37 227.474C196.695 230.474 201.084 231.637 207.823 232.026C214.062 231.522 218.505 230.597 223.155 227.487C225.315 226.043 226.397 223.502 226.397 220.904C226.397 218.391 225.393 215.915 223.317 214.499C219.152 211.66 214.67 210.556 207.823 209.928Z" fill="#E490B7"/>
<path d="M163.884 234.643C160.979 238.801 158.588 241.474 155.351 243.773C152.992 245.449 150.085 246.088 147.192 246.088C144.161 246.088 141.135 245.36 138.634 243.647C135.192 241.289 133.016 239.003 131.216 235.699C130.046 233.551 127.91 232.026 125.464 232.026C122.156 232.026 119.474 234.708 119.474 238.016V238.84C119.474 240.286 119.928 241.702 120.808 242.851C124.543 247.73 127.802 250.928 132.198 253.877C136.839 256.99 142.47 258.141 148.058 258.141C152.39 258.141 156.772 257.5 160.58 255.437C165.769 252.625 169.313 249.098 173.563 242.783C174.312 241.67 174.692 240.352 174.692 239.011V237.901C174.692 234.656 172.062 232.026 168.817 232.026C166.844 232.026 165.014 233.025 163.884 234.643Z" fill="#DD636E"/>
<path d="M199.811 110.283C167.797 134.718 142.956 145.299 89.3739 160.003C60.2593 71.6119 110.438 3.01326 223.385 12.5554C289.649 22.0975 306.143 65.3635 278.102 183.813C268.584 182.93 262.833 188.626 258.042 202.692V166.532C228.827 159.197 216.325 146.321 199.811 110.283Z" fill="#F4DD45"/>
<path d="M90.3827 160.004C64.2754 88.1853 98.4106 15.3633 193.792 13.8582C62.2691 -33.3518 -24.5767 43.9899 21.6102 186.12C28.8216 185.163 31.9118 189.092 36.6699 199.68V169.547L90.3827 160.004Z" fill="#EAB14D"/>
</svg>
