<svg width="406" height="509" viewBox="0 0 406 509" fill="none" xmlns="http://www.w3.org/2000/svg">
<path d="M49 288V102C49 90.9543 57.9543 82 69 82H335C346.046 82 355 90.9543 355 102V288C355 299.046 346.046 308 335 308H69C57.9543 308 49 299.046 49 288Z" fill="#C5CCD3"/>
<path d="M118 360V341C118 335.477 122.477 331 128 331H272C277.523 331 282 335.477 282 341V360H118Z" fill="#C5CCD3"/>
<path d="M339 509H374C379.523 509 384 504.523 384 499V385C384 379.477 379.523 375 374 375H339V509Z" fill="#C5CCD3"/>
<path d="M26 509H61V375H26C20.4772 375 16 379.477 16 385V499C16 504.523 20.4772 509 26 509Z" fill="#C5CCD3"/>
<path d="M49 102V288C49 299.046 57.9543 308 69 308H95.5C81.9353 301.116 75.5 297 75.5 283.5V106.5C75.5 92 84.5 87.5 95.5 82H69C57.9543 82 49 90.9543 49 102Z" fill="#B2AEC5"/>
<path d="M32 375H26C20.4772 375 16 379.477 16 385V499C16 504.523 20.4772 509 26 509H42C36.9974 506.128 31.5 503.5 31.5 494.5L32 385V375Z" fill="#B2AEC5"/>
<path d="M327.5 403.5C327.5 381.961 344.961 364.5 366.5 364.5C388.039 364.5 405.5 381.961 405.5 403.5C405.5 425.039 388.039 442.5 366.5 442.5C344.961 442.5 327.5 425.039 327.5 403.5Z" fill="#E6E9ED"/>
<path d="M0.5 403.5C0.5 381.961 17.9609 364.5 39.5 364.5C61.0391 364.5 78.5 381.961 78.5 403.5C78.5 425.039 61.0391 442.5 39.5 442.5C17.9609 442.5 0.5 425.039 0.5 403.5Z" fill="#E6E9ED"/>
<path d="M0.5 403.5C0.5 381.961 17.9609 364.5 39.5 364.5C17.5 383 15.5 422 39.5 442.5C17.9609 442.5 0.5 425.039 0.5 403.5Z" fill="#CEC6DB"/>
<path d="M138 350.5H118V341C118 335.477 122.477 331 128 331H146.5C140.311 332.501 138 334 138 341V350.5Z" fill="#CEC6DB"/>
<path d="M49 370.5V509H355V370.5C355 359.454 346.046 350.5 335 350.5H202H69C57.9543 350.5 49 359.454 49 370.5Z" fill="#9EA7AF"/>
<path d="M355 126H370C375.523 126 380 130.477 380 136V250C380 255.523 375.523 260 370 260H355V126Z" fill="#9EA7AF"/>
<path d="M34 126H49V260H34C28.4772 260 24 255.523 24 250V136C24 130.477 28.4772 126 34 126Z" fill="#9EA7AF"/>
<path d="M168.5 308H236.5V331H168.5V308Z" fill="#9EA7AF"/>
<path d="M196 308H168.5V331H196V308Z" fill="#918EA6"/>
<path d="M96 350.5H68.5C57.4543 350.5 48.5 359.454 48.5 370.5V509H76V375C76 364 81 356 96 350.5Z" fill="#918EA6"/>
<path d="M136.5 142H263C292.547 142 316.5 165.953 316.5 195.5C316.5 225.047 292.547 249 263 249H136.5C106.953 249 83 225.047 83 195.5C83 165.953 106.953 142 136.5 142Z" fill="#1A498F"/>
<path d="M292 509H108V419C108 413.477 112.477 409 118 409H282C287.523 409 292 413.477 292 419V509Z" fill="#135693"/>
<path d="M165.5 142H263C292.547 142 316.5 165.953 316.5 195.5C316.5 225.047 292.547 249 263 249H165.5C135.953 249 112 225.047 112 195.5C112 165.953 135.953 142 165.5 142Z" fill="#135693"/>
<path d="M192 82H208V46H192V82Z" fill="#135693"/>
<path d="M111 199C111 187.954 119.954 179 131 179C142.046 179 151 187.954 151 199C151 210.046 142.046 219 131 219C119.954 219 111 210.046 111 199Z" fill="#6BC1DD"/>
<path d="M248.5 199C248.5 187.954 257.454 179 268.5 179C279.546 179 288.5 187.954 288.5 199C288.5 210.046 279.546 219 268.5 219C257.454 219 248.5 210.046 248.5 199Z" fill="#6BC1DD"/>
<path d="M227 27C227 41.9117 214.912 54 200 54C185.088 54 173 41.9117 173 27C173 12.0883 185.088 0 200 0C214.912 0 227 12.0883 227 27Z" fill="#6BC1DD"/>
<path d="M216 461H184C182.343 461 181 459.657 181 458V440C181 438.343 182.343 437 184 437H216C217.657 437 219 438.343 219 440V458C219 459.657 217.657 461 216 461Z" fill="#6BC1DD"/>
<path d="M173 27C173 12.0883 185.088 0 200 0C183.5 12.5 184 41 200 54C185.088 54 173 41.9117 173 27Z" fill="#65A4CD"/>
<path d="M264.5 472H246.5C241.806 472 238 475.806 238 480.5C238 485.194 241.806 489 246.5 489H264.5C269.194 489 273 485.194 273 480.5C273 475.806 269.194 472 264.5 472Z" fill="#E6E9ED"/>
<path d="M158.5 426H134.5C130.358 426 127 429.358 127 433.5C127 437.642 130.358 441 134.5 441H158.5C162.642 441 166 437.642 166 433.5C166 429.358 162.642 426 158.5 426Z" fill="#E6E9ED"/>
<path d="M158.5 462.5H134.5C130.358 462.5 127 465.858 127 470C127 474.142 130.358 477.5 134.5 477.5H158.5C162.642 477.5 166 474.142 166 470C166 465.858 162.642 462.5 158.5 462.5Z" fill="#E6E9ED"/>
<path d="M147.5 444H134.5C130.358 444 127 447.358 127 451.5C127 455.642 130.358 459 134.5 459H147.5C151.642 459 155 455.642 155 451.5C155 447.358 151.642 444 147.5 444Z" fill="#E6E9ED"/>
<path d="M145 481.5H134.5C130.358 481.5 127 484.858 127 489C127 493.142 130.358 496.5 134.5 496.5H145C149.142 496.5 152.5 493.142 152.5 489C152.5 484.858 149.142 481.5 145 481.5Z" fill="#E6E9ED"/>
<path d="M219 480V509H181V480C181 478.343 182.343 477 184 477H216C217.657 477 219 478.343 219 480Z" fill="#FFC502"/>
<path d="M239 447.5C239 440.044 245.044 434 252.5 434C259.956 434 266 440.044 266 447.5C266 454.956 259.956 461 252.5 461C245.044 461 239 454.956 239 447.5Z" fill="#5DC647"/>
</svg>
