<svg width="498" height="57" viewBox="0 0 498 57" fill="none" xmlns="http://www.w3.org/2000/svg">
<g filter="url(#filter0_d)">
<path d="M28.4183 2.50715C28.9706 2.50715 29.4183 2.95486 29.4183 3.50715V35.3115C29.4183 38.9635 28.2853 41.8936 26.0194 44.1017C23.7534 46.2675 20.7606 47.3503 17.041 47.3503C13.2787 47.3503 10.2645 46.2462 7.99855 44.0381C5.93168 41.9851 4.80745 39.2609 4.62585 35.8655C4.59635 35.314 5.04732 34.8656 5.59961 34.8656H9.45508C9.99967 34.8656 10.4388 35.3022 10.4925 35.8442C10.663 37.5683 11.1999 39.0044 12.1029 40.1525C13.2145 41.5114 14.8606 42.1908 17.041 42.1908C19.2215 42.1908 20.8461 41.5538 21.915 40.2799C22.9838 38.9635 23.5183 37.3073 23.5183 35.3115V3.50715C23.5183 2.95486 23.966 2.50715 24.5183 2.50715H28.4183ZM61.1806 47.3503C57.0335 47.3503 53.2497 46.3949 49.8296 44.4839C46.4093 42.5305 43.6944 39.834 41.6849 36.3943C39.7182 32.9122 38.7349 29.0054 38.7349 24.6739C38.7349 20.3425 39.7182 16.4569 41.6849 13.0173C43.6944 9.53513 46.4093 6.83859 49.8296 4.92766C53.2497 2.97426 57.0335 1.99756 61.1806 1.99756C65.3705 1.99756 69.1756 2.97426 72.5959 4.92766C76.0163 6.83859 78.7098 9.51389 80.6765 12.9536C82.6431 16.3932 83.6265 20.3 83.6265 24.6739C83.6265 29.0479 82.6431 32.9546 80.6765 36.3943C78.7098 39.834 76.0163 42.5305 72.5959 44.4839C69.1756 46.3949 65.3705 47.3503 61.1806 47.3503ZM61.1806 42.3182C64.3017 42.3182 67.1021 41.5963 69.5818 40.1525C72.1043 38.7087 74.071 36.6491 75.4818 33.9738C76.9355 31.2985 77.6623 28.1986 77.6623 24.6739C77.6623 21.1069 76.9355 18.0069 75.4818 15.3741C74.071 12.6988 72.1257 10.6392 69.6459 9.19541C67.1662 7.75159 64.3444 7.02968 61.1806 7.02968C58.0168 7.02968 55.1951 7.75159 52.7153 9.19541C50.2357 10.6392 48.2691 12.6988 46.8154 15.3741C45.4045 18.0069 44.6991 21.1069 44.6991 24.6739C44.6991 28.1986 45.4045 31.2985 46.8154 33.9738C48.2691 36.6491 50.2357 38.7087 52.7153 40.1525C55.2378 41.5963 58.0596 42.3182 61.1806 42.3182ZM125.822 15.3741C125.437 15.3741 125.089 15.1516 124.909 14.8111C123.684 12.4928 121.983 10.6846 119.805 9.3865C117.453 7.94268 114.717 7.22078 111.596 7.22078C108.475 7.22078 105.653 7.94268 103.131 9.3865C100.651 10.7878 98.6844 12.8262 97.2308 15.5015C95.8199 18.1343 95.1145 21.1918 95.1145 24.6739C95.1145 28.1561 95.8199 31.2136 97.2308 33.8464C98.6844 36.4793 100.651 38.5176 103.131 39.9614C105.653 41.3627 108.475 42.0634 111.596 42.0634C115.957 42.0634 119.548 40.7682 122.37 38.1779C124.953 35.807 126.551 32.6713 127.163 28.7707C127.256 28.1838 126.79 27.6677 126.196 27.6677H110.48C109.928 27.6677 109.48 27.22 109.48 26.6677V23.9541C109.48 23.4018 109.928 22.9541 110.48 22.9541H132.529C133.081 22.9541 133.529 23.4018 133.529 23.9541V27.4129C133.187 31.065 132.033 34.4197 130.066 37.4772C128.099 40.4922 125.513 42.8915 122.306 44.675C119.1 46.4161 115.53 47.2866 111.596 47.2866C107.449 47.2866 103.665 46.3312 100.245 44.4202C96.8247 42.4668 94.1098 39.7703 92.1003 36.3306C90.1336 32.891 89.1503 29.0054 89.1503 24.6739C89.1503 20.3425 90.1336 16.4569 92.1003 13.0173C94.1098 9.53513 96.8247 6.83859 100.245 4.92766C103.665 2.97426 107.449 1.99756 111.596 1.99756C116.342 1.99756 120.532 3.16536 124.166 5.50094C127.444 7.58314 129.923 10.4247 131.604 14.0257C131.902 14.6643 131.42 15.3741 130.715 15.3741H125.822ZM161.511 47.3503C157.364 47.3503 153.58 46.3949 150.16 44.4839C146.739 42.5305 144.025 39.834 142.015 36.3943C140.048 32.9122 139.065 29.0054 139.065 24.6739C139.065 20.3425 140.048 16.4569 142.015 13.0173C144.025 9.53513 146.739 6.83859 150.16 4.92766C153.58 2.97426 157.364 1.99756 161.511 1.99756C165.701 1.99756 169.506 2.97426 172.926 4.92766C176.347 6.83859 179.04 9.51389 181.007 12.9536C182.973 16.3932 183.957 20.3 183.957 24.6739C183.957 29.0479 182.973 32.9546 181.007 36.3943C179.04 39.834 176.347 42.5305 172.926 44.4839C169.506 46.3949 165.701 47.3503 161.511 47.3503ZM161.511 42.3182C164.632 42.3182 167.432 41.5963 169.912 40.1525C172.435 38.7087 174.401 36.6491 175.812 33.9738C177.266 31.2985 177.993 28.1986 177.993 24.6739C177.993 21.1069 177.266 18.0069 175.812 15.3741C174.401 12.6988 172.456 10.6392 169.976 9.19541C167.497 7.75159 164.675 7.02968 161.511 7.02968C158.347 7.02968 155.525 7.75159 153.046 9.19541C150.566 10.6392 148.599 12.6988 147.146 15.3741C145.735 18.0069 145.029 21.1069 145.029 24.6739C145.029 28.1986 145.735 31.2985 147.146 33.9738C148.599 36.6491 150.566 38.7087 153.046 40.1525C155.568 41.5963 158.39 42.3182 161.511 42.3182ZM223.404 2.95301C228.278 2.95301 232.489 3.86605 236.038 5.69205C239.629 7.47558 242.365 10.0448 244.246 13.3996C246.17 16.7543 247.132 20.7035 247.132 25.2473C247.132 29.7911 246.17 33.7403 244.246 37.095C242.365 40.4073 239.629 42.9551 236.038 44.7387C232.489 46.4798 228.278 47.3503 223.404 47.3503H210.487C209.935 47.3503 209.487 46.9026 209.487 46.3503V3.95302C209.487 3.40073 209.935 2.95301 210.487 2.95301H223.404ZM223.404 42.573C229.176 42.573 233.579 41.0655 236.615 38.0505C239.65 34.993 241.168 30.7253 241.168 25.2473C241.168 19.7268 239.629 15.4166 236.551 12.3167C233.515 9.21673 229.133 7.66673 223.404 7.66673H216.323C215.771 7.66673 215.323 8.11444 215.323 8.66673V41.573C215.323 42.1253 215.771 42.573 216.323 42.573H223.404ZM281.491 38.1354C281.348 37.7402 280.972 37.4772 280.552 37.4772H262.457C262.036 37.4772 261.661 37.7402 261.517 38.1354L258.404 46.6921C258.261 47.0873 257.885 47.3503 257.465 47.3503H253.439C252.744 47.3503 252.261 46.659 252.5 46.0065L267.929 3.86401C268.073 3.46989 268.448 3.20781 268.868 3.20781H274.203C274.624 3.20781 274.999 3.47047 275.143 3.86522L290.51 46.0077C290.748 46.66 290.265 47.3503 289.571 47.3503H285.544C285.123 47.3503 284.748 47.0873 284.604 46.6921L281.491 38.1354ZM278.161 32.7636C278.854 32.7636 279.337 32.0762 279.102 31.4245L272.445 12.9525C272.127 12.0712 270.881 12.0712 270.563 12.9525L263.906 31.4245C263.671 32.0762 264.154 32.7636 264.847 32.7636H278.161ZM342.517 2.89063C343.217 2.89063 343.7 3.59137 343.452 4.24577L327.345 46.6428C327.198 47.031 326.826 47.2877 326.41 47.2877H321.056C320.641 47.2877 320.269 47.031 320.121 46.6428L304.015 4.24577C303.766 3.59137 304.25 2.89063 304.95 2.89063H309.022C309.442 2.89063 309.817 3.15241 309.961 3.54621L322.827 38.6137C323.147 39.4878 324.384 39.4878 324.704 38.6137L337.57 3.5462C337.714 3.15241 338.089 2.89063 338.508 2.89063H342.517ZM357.202 7.6042C356.649 7.6042 356.202 8.05192 356.202 8.6042V21.4456C356.202 21.9978 356.649 22.4456 357.202 22.4456H371.491C372.043 22.4456 372.491 22.8933 372.491 23.4456V26.2229C372.491 26.7752 372.043 27.2229 371.491 27.2229H357.202C356.649 27.2229 356.202 27.6706 356.202 28.2229V41.5103C356.202 42.0626 356.649 42.5103 357.202 42.5103H373.415C373.967 42.5103 374.415 42.9581 374.415 43.5103V46.2877C374.415 46.84 373.967 47.2877 373.415 47.2877H351.366C350.813 47.2877 350.366 46.84 350.366 46.2877V3.82693C350.366 3.27464 350.813 2.82693 351.366 2.82693H373.415C373.967 2.82693 374.415 3.27464 374.415 3.82693V6.6042C374.415 7.15649 373.967 7.6042 373.415 7.6042H357.202ZM389.082 41.574C389.082 42.1263 389.529 42.574 390.082 42.574H403.73C404.282 42.574 404.73 43.0218 404.73 43.574V46.2877C404.73 46.84 404.282 47.2877 403.73 47.2877H384.246C383.693 47.2877 383.246 46.84 383.246 46.2877V3.89063C383.246 3.33835 383.693 2.89063 384.246 2.89063H388.082C388.634 2.89063 389.082 3.33835 389.082 3.89063V41.574ZM444.365 2.89063C444.917 2.89063 445.365 3.33835 445.365 3.89063V46.2877C445.365 46.84 444.917 47.2877 444.365 47.2877H440.529C439.977 47.2877 439.529 46.84 439.529 46.2877V28.1592C439.529 27.6069 439.082 27.1592 438.529 27.1592H417.763C417.21 27.1592 416.763 27.6069 416.763 28.1592V46.2877C416.763 46.84 416.315 47.2877 415.763 47.2877H411.927C411.375 47.2877 410.927 46.84 410.927 46.2877V3.89063C410.927 3.33835 411.375 2.89063 411.927 2.89063H415.763C416.315 2.89063 416.763 3.33835 416.763 3.89063V21.3819C416.763 21.9342 417.21 22.3819 417.763 22.3819H438.529C439.082 22.3819 439.529 21.9342 439.529 21.3819V3.89063C439.529 3.33835 439.977 2.89063 440.529 2.89063H444.365ZM481.991 38.0727C481.848 37.6776 481.472 37.4145 481.052 37.4145H462.957C462.536 37.4145 462.161 37.6776 462.017 38.0727L458.904 46.6295C458.761 47.0247 458.385 47.2877 457.965 47.2877H453.939C453.244 47.2877 452.761 46.5964 453 45.9439L468.429 3.80161C468.573 3.40749 468.948 3.14541 469.368 3.14541H474.703C475.124 3.14541 475.499 3.40807 475.643 3.80282L491.01 45.9451C491.248 46.5974 490.765 47.2877 490.071 47.2877H486.044C485.623 47.2877 485.248 47.0247 485.104 46.6295L481.991 38.0727ZM478.661 32.7009C479.354 32.7009 479.837 32.0136 479.602 31.3619L472.945 12.8899C472.627 12.0086 471.381 12.0086 471.063 12.8899L464.406 31.3619C464.171 32.0136 464.654 32.7009 465.347 32.7009H478.661Z" fill="#EED600"/>
<path d="M28.4183 2.50715C28.9706 2.50715 29.4183 2.95486 29.4183 3.50715V35.3115C29.4183 38.9635 28.2853 41.8936 26.0194 44.1017C23.7534 46.2675 20.7606 47.3503 17.041 47.3503C13.2787 47.3503 10.2645 46.2462 7.99855 44.0381C5.93168 41.9851 4.80745 39.2609 4.62585 35.8655C4.59635 35.314 5.04732 34.8656 5.59961 34.8656H9.45508C9.99967 34.8656 10.4388 35.3022 10.4925 35.8442C10.663 37.5683 11.1999 39.0044 12.1029 40.1525C13.2145 41.5114 14.8606 42.1908 17.041 42.1908C19.2215 42.1908 20.8461 41.5538 21.915 40.2799C22.9838 38.9635 23.5183 37.3073 23.5183 35.3115V3.50715C23.5183 2.95486 23.966 2.50715 24.5183 2.50715H28.4183ZM61.1806 47.3503C57.0335 47.3503 53.2497 46.3949 49.8296 44.4839C46.4093 42.5305 43.6944 39.834 41.6849 36.3943C39.7182 32.9122 38.7349 29.0054 38.7349 24.6739C38.7349 20.3425 39.7182 16.4569 41.6849 13.0173C43.6944 9.53513 46.4093 6.83859 49.8296 4.92766C53.2497 2.97426 57.0335 1.99756 61.1806 1.99756C65.3705 1.99756 69.1756 2.97426 72.5959 4.92766C76.0163 6.83859 78.7098 9.51389 80.6765 12.9536C82.6431 16.3932 83.6265 20.3 83.6265 24.6739C83.6265 29.0479 82.6431 32.9546 80.6765 36.3943C78.7098 39.834 76.0163 42.5305 72.5959 44.4839C69.1756 46.3949 65.3705 47.3503 61.1806 47.3503ZM61.1806 42.3182C64.3017 42.3182 67.1021 41.5963 69.5818 40.1525C72.1043 38.7087 74.071 36.6491 75.4818 33.9738C76.9355 31.2985 77.6623 28.1986 77.6623 24.6739C77.6623 21.1069 76.9355 18.0069 75.4818 15.3741C74.071 12.6988 72.1257 10.6392 69.6459 9.19541C67.1662 7.75159 64.3444 7.02968 61.1806 7.02968C58.0168 7.02968 55.1951 7.75159 52.7153 9.19541C50.2357 10.6392 48.2691 12.6988 46.8154 15.3741C45.4045 18.0069 44.6991 21.1069 44.6991 24.6739C44.6991 28.1986 45.4045 31.2985 46.8154 33.9738C48.2691 36.6491 50.2357 38.7087 52.7153 40.1525C55.2378 41.5963 58.0596 42.3182 61.1806 42.3182ZM125.822 15.3741C125.437 15.3741 125.089 15.1516 124.909 14.8111C123.684 12.4928 121.983 10.6846 119.805 9.3865C117.453 7.94268 114.717 7.22078 111.596 7.22078C108.475 7.22078 105.653 7.94268 103.131 9.3865C100.651 10.7878 98.6844 12.8262 97.2308 15.5015C95.8199 18.1343 95.1145 21.1918 95.1145 24.6739C95.1145 28.1561 95.8199 31.2136 97.2308 33.8464C98.6844 36.4793 100.651 38.5176 103.131 39.9614C105.653 41.3627 108.475 42.0634 111.596 42.0634C115.957 42.0634 119.548 40.7682 122.37 38.1779C124.953 35.807 126.551 32.6713 127.163 28.7707C127.256 28.1838 126.79 27.6677 126.196 27.6677H110.48C109.928 27.6677 109.48 27.22 109.48 26.6677V23.9541C109.48 23.4018 109.928 22.9541 110.48 22.9541H132.529C133.081 22.9541 133.529 23.4018 133.529 23.9541V27.4129C133.187 31.065 132.033 34.4197 130.066 37.4772C128.099 40.4922 125.513 42.8915 122.306 44.675C119.1 46.4161 115.53 47.2866 111.596 47.2866C107.449 47.2866 103.665 46.3312 100.245 44.4202C96.8247 42.4668 94.1098 39.7703 92.1003 36.3306C90.1336 32.891 89.1503 29.0054 89.1503 24.6739C89.1503 20.3425 90.1336 16.4569 92.1003 13.0173C94.1098 9.53513 96.8247 6.83859 100.245 4.92766C103.665 2.97426 107.449 1.99756 111.596 1.99756C116.342 1.99756 120.532 3.16536 124.166 5.50094C127.444 7.58314 129.923 10.4247 131.604 14.0257C131.902 14.6643 131.42 15.3741 130.715 15.3741H125.822ZM161.511 47.3503C157.364 47.3503 153.58 46.3949 150.16 44.4839C146.739 42.5305 144.025 39.834 142.015 36.3943C140.048 32.9122 139.065 29.0054 139.065 24.6739C139.065 20.3425 140.048 16.4569 142.015 13.0173C144.025 9.53513 146.739 6.83859 150.16 4.92766C153.58 2.97426 157.364 1.99756 161.511 1.99756C165.701 1.99756 169.506 2.97426 172.926 4.92766C176.347 6.83859 179.04 9.51389 181.007 12.9536C182.973 16.3932 183.957 20.3 183.957 24.6739C183.957 29.0479 182.973 32.9546 181.007 36.3943C179.04 39.834 176.347 42.5305 172.926 44.4839C169.506 46.3949 165.701 47.3503 161.511 47.3503ZM161.511 42.3182C164.632 42.3182 167.432 41.5963 169.912 40.1525C172.435 38.7087 174.401 36.6491 175.812 33.9738C177.266 31.2985 177.993 28.1986 177.993 24.6739C177.993 21.1069 177.266 18.0069 175.812 15.3741C174.401 12.6988 172.456 10.6392 169.976 9.19541C167.497 7.75159 164.675 7.02968 161.511 7.02968C158.347 7.02968 155.525 7.75159 153.046 9.19541C150.566 10.6392 148.599 12.6988 147.146 15.3741C145.735 18.0069 145.029 21.1069 145.029 24.6739C145.029 28.1986 145.735 31.2985 147.146 33.9738C148.599 36.6491 150.566 38.7087 153.046 40.1525C155.568 41.5963 158.39 42.3182 161.511 42.3182ZM223.404 2.95301C228.278 2.95301 232.489 3.86605 236.038 5.69205C239.629 7.47558 242.365 10.0448 244.246 13.3996C246.17 16.7543 247.132 20.7035 247.132 25.2473C247.132 29.7911 246.17 33.7403 244.246 37.095C242.365 40.4073 239.629 42.9551 236.038 44.7387C232.489 46.4798 228.278 47.3503 223.404 47.3503H210.487C209.935 47.3503 209.487 46.9026 209.487 46.3503V3.95302C209.487 3.40073 209.935 2.95301 210.487 2.95301H223.404ZM223.404 42.573C229.176 42.573 233.579 41.0655 236.615 38.0505C239.65 34.993 241.168 30.7253 241.168 25.2473C241.168 19.7268 239.629 15.4166 236.551 12.3167C233.515 9.21673 229.133 7.66673 223.404 7.66673H216.323C215.771 7.66673 215.323 8.11444 215.323 8.66673V41.573C215.323 42.1253 215.771 42.573 216.323 42.573H223.404ZM281.491 38.1354C281.348 37.7402 280.972 37.4772 280.552 37.4772H262.457C262.036 37.4772 261.661 37.7402 261.517 38.1354L258.404 46.6921C258.261 47.0873 257.885 47.3503 257.465 47.3503H253.439C252.744 47.3503 252.261 46.659 252.5 46.0065L267.929 3.86401C268.073 3.46989 268.448 3.20781 268.868 3.20781H274.203C274.624 3.20781 274.999 3.47047 275.143 3.86522L290.51 46.0077C290.748 46.66 290.265 47.3503 289.571 47.3503H285.544C285.123 47.3503 284.748 47.0873 284.604 46.6921L281.491 38.1354ZM278.161 32.7636C278.854 32.7636 279.337 32.0762 279.102 31.4245L272.445 12.9525C272.127 12.0712 270.881 12.0712 270.563 12.9525L263.906 31.4245C263.671 32.0762 264.154 32.7636 264.847 32.7636H278.161ZM342.517 2.89063C343.217 2.89063 343.7 3.59137 343.452 4.24577L327.345 46.6428C327.198 47.031 326.826 47.2877 326.41 47.2877H321.056C320.641 47.2877 320.269 47.031 320.121 46.6428L304.015 4.24577C303.766 3.59137 304.25 2.89063 304.95 2.89063H309.022C309.442 2.89063 309.817 3.15241 309.961 3.54621L322.827 38.6137C323.147 39.4878 324.384 39.4878 324.704 38.6137L337.57 3.5462C337.714 3.15241 338.089 2.89063 338.508 2.89063H342.517ZM357.202 7.6042C356.649 7.6042 356.202 8.05192 356.202 8.6042V21.4456C356.202 21.9978 356.649 22.4456 357.202 22.4456H371.491C372.043 22.4456 372.491 22.8933 372.491 23.4456V26.2229C372.491 26.7752 372.043 27.2229 371.491 27.2229H357.202C356.649 27.2229 356.202 27.6706 356.202 28.2229V41.5103C356.202 42.0626 356.649 42.5103 357.202 42.5103H373.415C373.967 42.5103 374.415 42.9581 374.415 43.5103V46.2877C374.415 46.84 373.967 47.2877 373.415 47.2877H351.366C350.813 47.2877 350.366 46.84 350.366 46.2877V3.82693C350.366 3.27464 350.813 2.82693 351.366 2.82693H373.415C373.967 2.82693 374.415 3.27464 374.415 3.82693V6.6042C374.415 7.15649 373.967 7.6042 373.415 7.6042H357.202ZM389.082 41.574C389.082 42.1263 389.529 42.574 390.082 42.574H403.73C404.282 42.574 404.73 43.0218 404.73 43.574V46.2877C404.73 46.84 404.282 47.2877 403.73 47.2877H384.246C383.693 47.2877 383.246 46.84 383.246 46.2877V3.89063C383.246 3.33835 383.693 2.89063 384.246 2.89063H388.082C388.634 2.89063 389.082 3.33835 389.082 3.89063V41.574ZM444.365 2.89063C444.917 2.89063 445.365 3.33835 445.365 3.89063V46.2877C445.365 46.84 444.917 47.2877 444.365 47.2877H440.529C439.977 47.2877 439.529 46.84 439.529 46.2877V28.1592C439.529 27.6069 439.082 27.1592 438.529 27.1592H417.763C417.21 27.1592 416.763 27.6069 416.763 28.1592V46.2877C416.763 46.84 416.315 47.2877 415.763 47.2877H411.927C411.375 47.2877 410.927 46.84 410.927 46.2877V3.89063C410.927 3.33835 411.375 2.89063 411.927 2.89063H415.763C416.315 2.89063 416.763 3.33835 416.763 3.89063V21.3819C416.763 21.9342 417.21 22.3819 417.763 22.3819H438.529C439.082 22.3819 439.529 21.9342 439.529 21.3819V3.89063C439.529 3.33835 439.977 2.89063 440.529 2.89063H444.365ZM481.991 38.0727C481.848 37.6776 481.472 37.4145 481.052 37.4145H462.957C462.536 37.4145 462.161 37.6776 462.017 38.0727L458.904 46.6295C458.761 47.0247 458.385 47.2877 457.965 47.2877H453.939C453.244 47.2877 452.761 46.5964 453 45.9439L468.429 3.80161C468.573 3.40749 468.948 3.14541 469.368 3.14541H474.703C475.124 3.14541 475.499 3.40807 475.643 3.80282L491.01 45.9451C491.248 46.5974 490.765 47.2877 490.071 47.2877H486.044C485.623 47.2877 485.248 47.0247 485.104 46.6295L481.991 38.0727ZM478.661 32.7009C479.354 32.7009 479.837 32.0136 479.602 31.3619L472.945 12.8899C472.627 12.0086 471.381 12.0086 471.063 12.8899L464.406 31.3619C464.171 32.0136 464.654 32.7009 465.347 32.7009H478.661Z" stroke="#EED600" stroke-width="3"/>
</g>
<defs>
<filter id="filter0_d" x="0.125" y="0.497559" width="497.449" height="56.3528" filterUnits="userSpaceOnUse" color-interpolation-filters="sRGB">
<feFlood flood-opacity="0" result="BackgroundImageFix"/>
<feColorMatrix in="SourceAlpha" type="matrix" values="0 0 0 0 0 0 0 0 0 0 0 0 0 0 0 0 0 0 127 0" result="hardAlpha"/>
<feOffset dx="1" dy="4"/>
<feGaussianBlur stdDeviation="2"/>
<feComposite in2="hardAlpha" operator="out"/>
<feColorMatrix type="matrix" values="0 0 0 0 0 0 0 0 0 0 0 0 0 0 0 0 0 0 0.25 0"/>
<feBlend mode="normal" in2="BackgroundImageFix" result="effect1_dropShadow"/>
<feBlend mode="normal" in="SourceGraphic" in2="effect1_dropShadow" result="shape"/>
</filter>
</defs>
</svg>
